<svg width="23" height="25" viewBox="0 0 23 25" fill="none" xmlns="http://www.w3.org/2000/svg">
<path d="M15.075 11.875C15.075 12.6375 14.5125 13.2625 13.8 13.2625C13.1 13.2625 12.525 12.6375 12.525 11.875C12.525 11.1125 13.0875 10.4875 13.8 10.4875C14.5125 10.4875 15.075 11.1125 15.075 11.875ZM9.2375 10.4875C8.525 10.4875 7.9625 11.1125 7.9625 11.875C7.9625 12.6375 8.5375 13.2625 9.2375 13.2625C9.95 13.2625 10.5125 12.6375 10.5125 11.875C10.525 11.1125 9.95 10.4875 9.2375 10.4875ZM22.4375 2.575V25C19.2884 22.2171 20.2955 23.1383 16.6375 19.7375L17.3 22.05H3.125C1.7125 22.05 0.5625 20.9 0.5625 19.475V2.575C0.5625 1.15 1.7125 0 3.125 0H19.875C21.2875 0 22.4375 1.15 22.4375 2.575ZM18.875 14.425C18.875 10.4 17.075 7.1375 17.075 7.1375C15.275 5.7875 13.5625 5.825 13.5625 5.825L13.3875 6.025C15.5125 6.675 16.5 7.6125 16.5 7.6125C13.5307 5.98511 10.0428 5.98481 7.1625 7.25C6.7 7.4625 6.425 7.6125 6.425 7.6125C6.425 7.6125 7.4625 6.625 9.7125 5.975L9.5875 5.825C9.5875 5.825 7.875 5.7875 6.075 7.1375C6.075 7.1375 4.275 10.4 4.275 14.425C4.275 14.425 5.325 16.2375 8.0875 16.325C8.0875 16.325 8.55 15.7625 8.925 15.2875C7.3375 14.8125 6.7375 13.8125 6.7375 13.8125C6.92139 13.9412 7.22461 14.1081 7.25 14.125C9.35986 15.3065 12.3568 15.6937 15.05 14.5625C15.4875 14.4 15.975 14.1625 16.4875 13.825C16.4875 13.825 15.8625 14.85 14.225 15.3125C14.6 15.7875 15.05 16.325 15.05 16.325C17.8125 16.2375 18.875 14.425 18.875 14.425Z" fill="white" fill-opacity="0.5"/>
</svg>
