<svg width="25" height="17" viewBox="0 0 25 17" fill="none" xmlns="http://www.w3.org/2000/svg">
<path d="M23.8566 2.77452C23.5839 1.74804 22.7807 0.939621 21.7609 0.665272C19.9124 0.166748 12.5 0.166748 12.5 0.166748C12.5 0.166748 5.08767 0.166748 3.2391 0.665272C2.21927 0.939665 1.41606 1.74804 1.14344 2.77452C0.648132 4.63506 0.648132 8.51692 0.648132 8.51692C0.648132 8.51692 0.648132 12.3988 1.14344 14.2593C1.41606 15.2858 2.21927 16.0605 3.2391 16.3349C5.08767 16.8334 12.5 16.8334 12.5 16.8334C12.5 16.8334 19.9123 16.8334 21.7609 16.3349C22.7807 16.0605 23.5839 15.2858 23.8566 14.2593C24.3519 12.3988 24.3519 8.51692 24.3519 8.51692C24.3519 8.51692 24.3519 4.63506 23.8566 2.77452V2.77452ZM10.0757 12.0414V4.99249L16.271 8.51701L10.0757 12.0414V12.0414Z" fill="white" fill-opacity="0.5"/>
</svg>
